<svg version="1.1" id="Layer_1" xmlns="http://www.w3.org/2000/svg" x="0" y="0" viewBox="0 0 256 256" style="enable-background:new 0 0 256 256" xml:space="preserve" height="100px" width="100px" transform="rotate(0) scale(1, 1)">
    <style>.st0 { fill: #d08c60; }.st1 { fill: #e5c59e; }.st3 { fill: #d9ae94; }.st4 { fill: #797d62; }.st7 { fill: #997b66; }</style>
    <g id="Layer_35">
        <path class="st0" d="M241.2 157.1 186.8 48.2c-2.3-4.7-8-6.6-12.7-4.2-1.8.9-3.3 2.4-4.2 4.2l-54.5 108.9c-2.3 4.7-.4 10.4 4.2 12.7 1.3.7 2.8 1 4.2 1h108.9c5.2 0 9.5-4.2 9.5-9.5 0-1.4-.3-2.9-1-4.2z"/>
        <path class="st1" d="M230.5 157.9 180.1 57.1c-.5-1-1.7-1.4-2.7-.9-.4.2-.7.5-.9.9l-50.4 100.8c-.5 1-.1 2.2.9 2.7.3.1.6.2.9.2h100.8c1.1 0 2-.9 2-2 0-.3-.1-.6-.2-.9z"/>
        <circle class="st0" cx="178.3" cy="143.7" r="6.1"/>
        <path class="st0" d="M178.4 87.6c-3.6-.1-6.5 2.8-6.6 6.3v.5l1.5 30.9c.1 2.8 2.5 4.9 5.2 4.8 2.6-.1 4.7-2.2 4.8-4.8l1.5-30.6c.2-3.7-2.6-6.9-6.4-7.1.1 0 0 0 0 0z"/>
        <path d="M111 30.8c-3.2 0-6.3.9-9 2.5-3.2-5.3-8.9-8.6-15.1-8.6h-9.1c-17.7 0-31.9 14.3-32 31.9v14.3c2.8-2.3 6.5-3.2 10-2.7v-1.5c0-.9.8-1.6 1.7-1.6h.3c5.6 1.2 22.3 3.2 33.6-11 .6-.7 1.6-.8 2.3-.3l.1.1c2.6 2.5 9.4 7.6 22.2 8 .9 0 1.6.7 1.6 1.6v4.6c4-.6 8 .7 10.9 3.5V48.5c.1-9.8-7.8-17.7-17.5-17.7z" style="fill:#6d6c6b"/>
        <path class="st3" d="M119.7 68.1c-.7 0-1.4.1-2.1.2 0 .7.1 1.4.1 2.1v21.3c0 .7 0 1.4-.1 2.1 7 1.1 13.7-3.7 14.8-10.7 1.1-7-3.7-13.7-10.7-14.8-.7-.2-1.4-.2-2-.2zM55.9 70.3c0-.7 0-1.4.1-2.1-7-1.2-13.7 3.6-14.9 10.6-1.2 7 3.6 13.7 10.6 14.9 1.4.2 2.9.2 4.3 0 0-.7-.1-1.4-.1-2.1V70.3z"/>
        <path class="st3" d="M117.7 63.6c0-.9-.7-1.6-1.6-1.6-12.8-.4-19.6-5.5-22.2-8-.7-.6-1.7-.6-2.4 0l-.1.1c-11.3 14.2-28 12.2-33.6 11-.9-.2-1.8.4-2 1.3v25.2c0 17.1 13.9 30.9 30.9 30.9 17.1 0 30.9-13.9 30.9-30.9V64.1c.1-.2.1-.3.1-.5z"/>
        <path class="st3" d="M86.8 122.6c-4.8 0-9.5-1.1-13.8-3.3v11.4l4.9 14c.3.8 1.1 1.4 1.9 1.4h14.9c.9 0 1.6-.5 1.9-1.4l4.9-14v-11.9c-4.5 2.5-9.6 3.8-14.7 3.8z"/>
        <path class="st1" d="m152.9 222.2-2.9-51.4h-26.2c-5.2 0-9.5-4.2-9.5-9.5 0-1.5.3-2.9 1-4.2l8.6-17.2-8-2-14.4-7.1-4.9 14c-.3.8-1.1 1.4-1.9 1.4H79.8c-.9 0-1.6-.5-1.9-1.4l-4.9-14-14.4 7.1-24 6c-5.2 1.3-8.9 5.8-9.2 11.2l-3.7 67.2c-.3 4.7 3.4 8.8 8.1 9.1h114.6c4.7 0 8.6-3.9 8.6-8.6-.1-.2-.1-.4-.1-.6z"/>
        <path class="st4" d="M11.2 140.4H9.3v-1.8c0-1.4-1.1-2.5-2.5-2.5s-2.5 1.1-2.5 2.5v1.8H2.5c-1.4 0-2.5 1.1-2.5 2.5s1.1 2.5 2.5 2.5h1.8v1.8c0 1.4 1.1 2.5 2.5 2.5s2.5-1.1 2.5-2.5v-1.8h1.8c1.4 0 2.5-1.1 2.5-2.5s-1-2.5-2.4-2.5z"/>
        <path class="st0" d="M182.6 189.1h-1.8v-1.8c0-1.4-1.1-2.5-2.5-2.5s-2.5 1.1-2.5 2.5v1.8H174c-1.4 0-2.5 1.1-2.5 2.5s1.1 2.5 2.5 2.5h1.8v1.8c0 1.4 1.1 2.5 2.5 2.5s2.5-1.1 2.5-2.5v-1.8h1.8c1.4 0 2.5-1.1 2.5-2.5s-1.1-2.5-2.5-2.5z"/>
        <path class="st4" d="M255.9 80.5c-.1-.3-.2-.6-.4-.9-.1-.1-.2-.3-.3-.4-1-.9-2.5-.9-3.5 0-.1.1-.2.2-.3.4-.1.1-.2.3-.2.4-.1.2-.1.3-.1.5-.1.3-.1.7 0 1 0 .2.1.3.1.5.1.1.1.3.2.4.1.1.2.3.3.4 1 1 2.5 1 3.5 0 .1-.1.2-.2.3-.4.1-.1.2-.3.2-.4.1-.1.1-.3.1-.5.2-.4.2-.7.1-1z"/>
        <path d="M24 116.8c-.1-.3-.2-.6-.4-.9-.1-.1-.2-.3-.3-.4-1-.9-2.5-.9-3.5 0-.1.1-.2.2-.3.4-.1.1-.2.3-.2.4-.1.2-.1.3-.1.5-.1.3-.1.7 0 1 0 .2.1.3.1.5.1.1.1.3.2.4.1.1.2.3.3.4 1 1 2.5 1 3.5 0 .1-.1.2-.2.3-.4.1-.1.2-.3.2-.4.1-.1.1-.3.1-.5.2-.4.2-.7.1-1z" style="fill:#6dcc6d"/>
        <path d="M244.8 100.8c-3.5-.7-6.2-3.4-6.8-6.8 0-.1-.1-.1-.2-.1s-.1.1-.1.1c-.7 3.5-3.4 6.2-6.8 6.8-.1 0-.1.1-.1.2s.1.1.1.1c3.5.7 6.2 3.4 6.8 6.8 0 .1.1.1.2.1s.1-.1.1-.1c.7-3.5 3.4-6.2 6.8-6.8.1 0 .1-.1.1-.2 0 0-.1 0-.1-.1z" style="fill:#ffcd29"/>
        <path class="st7" d="M119.7 65.6c-.8 0-1.6.1-2.5.2-1.3.2-2.2 1.3-2.1 2.6.1.7.1 1.3.1 1.9v21.3c0 .6 0 1.2-.1 1.9-.1 1.3.8 2.4 2.1 2.6 8.4 1.3 16.3-4.4 17.6-12.8 1.3-8.4-4.4-16.3-12.8-17.6-.7-.1-1.5-.1-2.3-.1zm.5 25.8V70.6c5.7.3 10.2 5.2 9.9 10.9-.3 5.3-4.6 9.6-9.9 9.9zM58.4 70.3c0-.6 0-1.2.1-1.9.1-1.3-.8-2.4-2.1-2.6-8.4-1.4-16.3 4.4-17.7 12.8-1.4 8.4 4.4 16.3 12.8 17.7.8.1 1.6.2 2.5.2.8 0 1.6-.1 2.5-.2 1.3-.2 2.2-1.3 2.1-2.6 0-.7-.1-1.3-.1-1.9l-.1-21.5zm-5 21.1c-5.7-.3-10.2-5.2-9.9-10.9.3-5.3 4.5-9.6 9.9-9.9v20.8z"/>
        <path class="st7" d="M120.2 63.6c0-2.2-1.8-4-4-4.1-12.2-.4-18.4-5.2-20.5-7.3-1.6-1.6-4.3-1.6-5.9.1l-.3.3C79.2 65.4 64.3 63.9 58.4 62.7c-2.2-.5-4.4 1-4.9 3.2-.1.3-.1.6-.1.9v24.9c0 18.5 15 33.4 33.4 33.4s33.4-15 33.4-33.4V63.6zm-5 28c0 15.7-12.7 28.4-28.4 28.4s-28.4-12.7-28.4-28.4V67.8c6.3 1.1 22.8 2.5 34.4-11.4 3.4 3.1 10.3 7.5 22.4 8.1v27.1z"/>
        <path class="st7" d="M111 28.3c-2.8 0-5.6.6-8.2 1.8-3.8-5-9.7-7.9-16-7.9h-9.1c-19 0-34.4 15.4-34.4 34.4v14.3c0 1.4 1.1 2.5 2.5 2.5.6 0 1.1-.2 1.6-.5 1.8-1.5 4.1-2.3 6.5-2.3.5 0 1.1 0 1.6.1 1.4.2 2.6-.7 2.9-2.1v-.8c6.3 1.1 22.8 2.5 34.4-11.4 3.4 3.1 10.3 7.5 22.4 8.1v3.8c0 1.4 1.1 2.5 2.5 2.5h.4c.5-.1 1.1-.1 1.6-.1 2.7 0 5.3 1 7.2 2.9 1 1 2.6.9 3.5-.1.4-.5.7-1.1.7-1.7V48.5c0-11.2-9-20.2-20.1-20.2zM126.1 67c-1.9-.9-3.9-1.3-5.9-1.4v-2c0-2.2-1.8-4-4-4.1-12.2-.4-18.4-5.2-20.5-7.3-1.6-1.6-4.3-1.6-5.9.1l-.3.3C79.2 65.4 64.3 63.9 58.4 62.7c-1.2-.3-2.5.1-3.5.8-.6.5-1.1 1.2-1.4 2-1.8 0-3.5.4-5.2 1v-10c0-16.2 13.2-29.4 29.4-29.4h9.1c5.3 0 10.3 2.9 13 7.4.7 1.2 2.2 1.6 3.4.9 7.2-4.3 16.4-2 20.7 5.2 1.4 2.4 2.2 5.1 2.2 7.8V67zM89.7 162.6c0-.2-.1-.3-.1-.5-.1-.2-.1-.3-.2-.4-.1-.1-.2-.3-.3-.4-.1-.1-.2-.2-.4-.3-.1-.1-.3-.2-.4-.2-.2-.1-.3-.1-.5-.1-.8-.2-1.7.1-2.3.7-.1.1-.2.2-.3.4-.1.1-.2.3-.2.4-.1.3-.2.6-.2 1 0 1.4 1.1 2.5 2.5 2.5.2 0 .3 0 .5-.1.2 0 .3-.1.5-.1.2-.1.3-.1.4-.2.1-.1.3-.2.4-.3.1-.1.2-.2.3-.4.1-.1.2-.3.2-.4.1-.2.1-.3.1-.5s.1-.3.1-.5c-.1-.3-.1-.5-.1-.6zM89.7 179.1c0-.2-.1-.3-.1-.5-.1-.2-.1-.3-.2-.4-.1-.1-.2-.3-.3-.4-.1-.1-.2-.2-.4-.3-.1-.1-.3-.2-.4-.2-.2-.1-.3-.1-.5-.1-.3-.1-.7-.1-1 0-.2 0-.3.1-.5.1-.2.1-.3.1-.4.2-.1.1-.3.2-.4.3-1 1-1 2.6 0 3.5.5.5 1.1.7 1.8.7.2 0 .3 0 .5-.1.2 0 .3-.1.5-.1.2-.1.3-.1.4-.2.1-.1.3-.2.4-.3.5-.5.7-1.1.7-1.8-.1-.1-.1-.2-.1-.4zM89.7 195.6c0-.2-.1-.3-.1-.5-.1-.2-.1-.3-.2-.4-.1-.1-.2-.3-.3-.4-.1-.1-.2-.2-.4-.3-.1-.1-.3-.2-.4-.2-.2-.1-.3-.1-.5-.1-.8-.2-1.7.1-2.3.7-.1.1-.2.2-.3.4-.1.1-.2.3-.2.4-.1.3-.2.6-.2 1 0 1.4 1.1 2.5 2.5 2.5.2 0 .3 0 .5-.1.2 0 .3-.1.5-.1.2-.1.3-.1.4-.2.1-.1.3-.2.4-.3.1-.1.2-.2.3-.4.1-.1.2-.3.2-.4.1-.2.1-.3.1-.5s.1-.3.1-.5c-.1-.3-.1-.4-.1-.6zM89.7 212.1c0-.2-.1-.3-.1-.5-.1-.2-.1-.3-.2-.4-.1-.1-.2-.3-.3-.4-.1-.1-.2-.2-.4-.3-.1-.1-.3-.2-.4-.2-.2-.1-.3-.1-.5-.1-.8-.2-1.7.1-2.3.7-.1.1-.2.2-.3.4-.1.1-.2.3-.2.4-.1.1-.1.3-.1.5s0 .3-.1.5c0 1.4 1.1 2.5 2.5 2.5.2 0 .3 0 .5-.1.2 0 .3-.1.5-.1.2-.1.3-.1.4-.2.1-.1.3-.2.4-.3.1-.1.2-.2.3-.4.1-.1.2-.3.2-.4.1-.2.1-.3.1-.5s.1-.3.1-.5c-.1-.2-.1-.4-.1-.6zM123.4 182.2c-1.4 0-2.5 1.1-2.5 2.5v46.6c0 1.4 1.1 2.5 2.5 2.5s2.5-1.1 2.5-2.5v-46.6c0-1.4-1.1-2.5-2.5-2.5zM50.2 182.2c-1.4 0-2.5 1.1-2.5 2.5v46.6c0 1.4 1.1 2.5 2.5 2.5s2.5-1.1 2.5-2.5v-46.6c0-1.4-1.2-2.5-2.5-2.5zM102.7 116.7c-.8-.5-1.7-.5-2.5 0-4.1 2.3-8.8 3.4-13.5 3.4-4.4 0-8.7-1-12.7-3-1.2-.6-2.7-.1-3.4 1.1-.2.3-.3.7-.3 1.1v11.4c0 .3 0 .6.1.8l4.9 14c.6 1.8 2.4 3 4.3 3h14.9c1.9 0 3.6-1.2 4.3-3l4.9-14c.1-.3.1-.5.1-.8v-11.9c.2-.9-.3-1.7-1.1-2.1zM99 130.3l-4.6 13.3H80.1l-4.6-13.3v-7.2c3.6 1.3 7.4 2 11.3 2 4.2 0 8.3-.8 12.2-2.3v7.5zM243.5 156 189 47c-3-5.9-10.2-8.3-16.1-5.4-2.3 1.2-4.2 3-5.4 5.4l-54.4 109c-3 5.9-.6 13.1 5.4 16.1 1.7.8 3.5 1.3 5.4 1.3h108.9c6.6 0 12-5.4 12-12-.1-1.9-.5-3.8-1.3-5.4zm-4.8 9c-1.3 2.1-3.5 3.3-5.9 3.3h-109c-3.9 0-7-3.1-7-7 0-1.1.3-2.2.7-3.1L172 49.3c1.7-3.5 5.9-4.9 9.4-3.1 1.4.7 2.5 1.8 3.1 3.1L239 158.2c1.1 2.2 1 4.8-.3 6.8z"/>
        <path class="st7" d="m155.4 222.1-2.9-51.4c-.1-1.3-1.2-2.4-2.5-2.4h-26.2c-3.9 0-7-3.1-7-7 0-1.1.3-2.2.7-3.1l8.6-17.2c.6-1.2.1-2.7-1.1-3.4-.2-.1-.3-.1-.5-.2l-7.8-2-14.2-7c-1.2-.6-2.7-.1-3.3 1.1 0 .1-.1.2-.1.3l-4.8 13.7H80.1l-4.8-13.7c-.5-1.3-1.9-2-3.2-1.5-.1 0-.2.1-.3.1l-14.2 7-23.8 6c-6.3 1.6-10.8 7-11.1 13.4L19 222c-.3 6.1 4.3 11.4 10.5 11.7H144.2c6.1 0 11.1-5 11.1-11.1.1-.1.1-.3.1-.5zm-6.7 4.8c-1.1 1.2-2.8 1.9-4.4 1.9H30.2c-3.4 0-6.1-2.7-6.1-6.1v-.3l3.7-67.2c.2-4.2 3.2-7.8 7.3-8.9l24-6c.2 0 .3-.1.5-.2l11.9-5.9 3.9 11.3c.6 1.8 2.4 3 4.3 3h14.9c1.9 0 3.6-1.2 4.3-3l3.9-11.3 11.9 5.9c.2.1.3.1.5.2l5 1.3-7.2 14.5c-3 5.9-.6 13.1 5.4 16.1 1.7.8 3.5 1.3 5.4 1.3h23.8l2.7 49c.2 1.6-.4 3.2-1.6 4.4z"/>
        <path class="st7" d="M228.7 163.3H127.9c-2.5 0-4.5-2-4.5-4.5 0-.7.2-1.4.5-2L174.2 56c1.1-2.2 3.8-3.1 6-2 .9.4 1.6 1.1 2 2l50.4 100.8c1.1 2.2.2 4.9-2 6-.5.4-1.2.5-1.9.5zm-100-5h99.2l-49.6-99.2-49.6 99.2z"/>
        <path class="st7" d="M178.3 152.3c-4.7 0-8.6-3.8-8.6-8.6 0-4.7 3.8-8.6 8.6-8.6 4.7 0 8.6 3.8 8.6 8.6 0 4.7-3.9 8.6-8.6 8.6zm0-12.2c-2 0-3.6 1.6-3.6 3.6s1.6 3.6 3.6 3.6 3.6-1.6 3.6-3.6-1.6-3.6-3.6-3.6zM178.3 132.5c-4 0-7.3-3.1-7.5-7.1l-1.5-30.9c-.2-5 3.6-9.2 8.5-9.4h.6c2.4.1 4.6 1.1 6.3 2.8 1.7 1.9 2.6 4.3 2.5 6.9l-1.5 30.6c-.1 4-3.4 7.1-7.4 7.1zm0-42.4c-2.2 0-4 1.8-4 4v.2l1.5 30.9c0 1.4 1.1 2.5 2.5 2.5s2.5-1.1 2.5-2.5l1.5-30.6c.1-1.2-.4-2.3-1.2-3.2-.7-.8-1.7-1.3-2.8-1.3z"/>
    </g>
</svg>