<svg width="150" height="39" viewBox="0 0 150 39" fill="none" xmlns="http://www.w3.org/2000/svg">
<path d="M149.344 29.5312C149.406 29.7812 149.453 30.0156 149.484 30.2344C149.516 30.4531 149.562 30.6875 149.625 30.9375C149.5 31.25 149.391 31.5625 149.297 31.875C149.203 32.1562 149.109 32.4375 149.016 32.7188C148.922 32.9375 148.859 33.0781 148.828 33.1406C148.797 33.2031 148.781 33.25 148.781 33.2812C148.781 33.3125 148.781 33.3594 148.781 33.4219C148.812 33.4531 148.828 33.5781 148.828 33.7969L148.641 34.3594C148.484 34.5781 148.297 34.75 148.078 34.875C147.859 35 147.641 35.1094 147.422 35.2031C147.359 35.2656 147.266 35.3125 147.141 35.3438C147.016 35.4062 146.922 35.4688 146.859 35.5312L146.719 36.0938L146.109 36.1875C145.578 36.3125 145.125 36.375 144.75 36.375H144.188C143.812 36.0312 143.516 35.7656 143.297 35.5781C143.078 35.3906 142.844 35.2188 142.594 35.0625C142.281 34.625 142.109 34.3125 142.078 34.125C142.047 33.9062 142 33.7031 141.938 33.5156C141.875 33.1094 141.797 32.8438 141.703 32.7188L141.047 32.0625L141.609 31.6406L141.094 30.75C141.469 30.4688 141.75 30.2656 141.938 30.1406C142.125 30.0156 142.281 29.8906 142.406 29.7656C142.531 29.6094 142.672 29.4219 142.828 29.2031C142.984 28.9844 143.234 28.625 143.578 28.125L144 27.5156L144.609 27.8438C144.734 27.9375 145 28.0312 145.406 28.125C145.844 28.1875 146.219 28.25 146.531 28.3125C147.062 28.4688 147.562 28.5938 148.031 28.6875C148.5 28.75 148.875 28.9062 149.156 29.1562L149.344 29.5312Z" fill="white"/>
<path d="M129.281 34.5938C128.406 34.875 127.453 35.1562 126.422 35.4375C125.391 35.7188 124.359 35.8594 123.328 35.8594C121.766 35.8594 120.531 35.4688 119.625 34.6875C119.469 34.3438 119.328 34.1094 119.203 33.9844C119.109 33.8594 119.016 33.7344 118.922 33.6094C118.859 33.4531 118.812 33.25 118.781 33C118.406 32.5625 118.109 32.0625 117.891 31.5C117.672 30.9062 117.516 30.3125 117.422 29.7188C117.359 29.0938 117.344 28.4688 117.375 27.8438C117.438 27.2188 117.547 26.625 117.703 26.0625C117.766 25.9375 117.797 25.8125 117.797 25.6875C117.828 25.5625 117.859 25.4219 117.891 25.2656C118.016 24.7656 118.141 24.2812 118.266 23.8125C118.422 23.3438 118.625 22.9375 118.875 22.5938C118.75 22.3125 118.75 22 118.875 21.6562C119 21.3125 119.141 21 119.297 20.7188C119.734 19.5312 120.094 18.5312 120.375 17.7188C120.688 16.875 121 16.0469 121.312 15.2344C121.844 13.8281 122.344 12.4375 122.812 11.0625C123.281 9.6875 123.703 8.20312 124.078 6.60938C124.328 6.45312 124.516 6.34375 124.641 6.28125C124.828 6.21875 124.984 6.17188 125.109 6.14062C125.672 6.42188 126.328 6.70312 127.078 6.98438C127.828 7.23438 128.453 7.35938 128.953 7.35938C129.203 7.51562 129.359 7.64062 129.422 7.73438C129.484 7.79688 129.547 7.85938 129.609 7.92188C129.953 8.32812 130.25 8.75 130.5 9.1875C130.75 9.59375 130.828 10.1406 130.734 10.8281C130.547 11.1094 130.406 11.25 130.312 11.25C130.156 11.875 129.984 12.4062 129.797 12.8438C129.641 13.2812 129.469 13.7188 129.281 14.1562C129.062 14.625 128.859 15.0938 128.672 15.5625C128.484 16.0312 128.328 16.6094 128.203 17.2969C128.078 17.4531 127.984 17.5938 127.922 17.7188C127.891 17.8438 127.844 17.9844 127.781 18.1406C127.719 18.2969 127.641 18.4688 127.547 18.6562C127.484 18.8125 127.375 18.9531 127.219 19.0781C127.125 19.8906 126.969 20.5469 126.75 21.0469C126.562 21.5469 126.359 22.0469 126.141 22.5469C125.766 23.4531 125.422 24.3594 125.109 25.2656C124.828 26.1719 124.656 27.2031 124.594 28.3594C124.75 28.2969 124.891 28.2656 125.016 28.2656C125.172 28.2656 125.312 28.2656 125.438 28.2656C125.719 28.2656 126.047 28.3125 126.422 28.4062C127.359 27.9062 128.375 27.6094 129.469 27.5156C130.594 27.4219 131.703 27.3594 132.797 27.3281C133.234 27.3281 133.672 27.3281 134.109 27.3281C134.547 27.3281 134.953 27.2969 135.328 27.2344C135.609 27.3906 135.781 27.4844 135.844 27.5156C135.938 27.5156 136.062 27.5156 136.219 27.5156C136.438 27.5156 136.625 27.5312 136.781 27.5625C137.156 27.9062 137.516 28.1562 137.859 28.3125C138.203 28.4688 138.562 28.6094 138.938 28.7344C139.281 28.8594 139.609 29 139.922 29.1562C140.266 29.2812 140.594 29.4688 140.906 29.7188L141.234 31.7344C141.453 32.0156 141.547 32.2031 141.516 32.2969C141.516 32.5469 141.453 32.7344 141.328 32.8594L141.422 33.375C140.953 33.4688 140.625 33.5781 140.438 33.7031C140.281 33.8281 140.125 33.9688 139.969 34.125C139.719 34.1562 139.531 34.1719 139.406 34.1719C139.312 34.1719 139.219 34.1719 139.125 34.1719C138.688 34.1719 138.156 34.25 137.531 34.4062C136.688 34.125 135.812 33.9844 134.906 33.9844C134.562 33.9844 134.203 34 133.828 34.0312C133.453 34.0625 133.078 34.0938 132.703 34.125C132.328 34.1875 131.938 34.2344 131.531 34.2656C131.156 34.2969 130.766 34.3125 130.359 34.3125L129.281 34.5938Z" fill="white"/>
<path d="M98.4844 30.2344C98.1406 31.4844 97.8281 32.4375 97.5469 33.0938C97.2969 33.7188 96.9062 34.375 96.375 35.0625C95.9688 35 95.6875 35.0469 95.5312 35.2031C95.375 35.3594 95.2031 35.5 95.0156 35.625C94.7344 35.6875 94.5312 35.6875 94.4062 35.625C94.2812 35.5625 94.1719 35.4844 94.0781 35.3906C93.9844 35.3281 93.8594 35.25 93.7031 35.1562C93.5781 35.0938 93.375 35.0625 93.0938 35.0625C93.0312 34.8125 92.9531 34.5781 92.8594 34.3594C92.7969 34.1406 92.5938 34.0625 92.25 34.125C92.3125 33.875 92.3281 33.6719 92.2969 33.5156C92.2656 33.3281 92.2188 33.1719 92.1562 33.0469C92.125 32.8906 92.0938 32.75 92.0625 32.625C92.0312 32.4688 92.0469 32.2812 92.1094 32.0625C91.9531 32.0625 91.8281 31.9531 91.7344 31.7344C91.6406 31.5156 91.5312 31.2969 91.4062 31.0781C91.5 30.5156 91.5938 29.9844 91.6875 29.4844C91.7812 28.9844 91.8906 28.5156 92.0156 28.0781C92.1719 27.6406 92.2969 27.2031 92.3906 26.7656C92.4844 26.3281 92.4375 25.875 92.25 25.4062C92.375 25.5 92.4688 25.4844 92.5312 25.3594C92.5938 25.2031 92.6406 25.0156 92.6719 24.7969C92.7031 24.5469 92.7188 24.3125 92.7188 24.0938C92.7188 23.8438 92.7031 23.6406 92.6719 23.4844C92.9844 22.6719 93.2344 21.8438 93.4219 21C93.6406 20.125 93.8281 19.2656 93.9844 18.4219C94.1719 17.5781 94.3594 16.75 94.5469 15.9375C94.7344 15.125 94.9844 14.375 95.2969 13.6875C95.6406 13.625 96.0156 13.6719 96.4219 13.8281C96.8594 13.9531 97.125 14.125 97.2188 14.3438C98.0312 13.7188 98.75 12.9688 99.375 12.0938C100 11.1875 100.641 10.3125 101.297 9.46875C101.953 8.625 102.672 7.875 103.453 7.21875C104.266 6.5625 105.281 6.17188 106.5 6.04688C107.125 6.51562 107.812 7 108.562 7.5C109.344 7.96875 109.984 8.59375 110.484 9.375C110.734 9.5 110.938 9.64062 111.094 9.79688C111.281 9.92188 111.5 10.0625 111.75 10.2188V10.7812C112.125 11.125 112.422 11.5312 112.641 12C112.891 12.4375 113.109 12.9219 113.297 13.4531C113.484 13.9531 113.672 14.4688 113.859 15C114.047 15.5 114.266 15.9844 114.516 16.4531C114.453 16.6094 114.422 16.75 114.422 16.875C114.422 16.9688 114.438 17.0781 114.469 17.2031C114.531 17.3281 114.578 17.4531 114.609 17.5781C114.641 17.7031 114.641 17.875 114.609 18.0938C114.516 19.4688 114.062 20.5781 113.25 21.4219C112.469 22.2656 111.516 22.9688 110.391 23.5312C109.266 24.0625 108.062 24.5156 106.781 24.8906C105.5 25.2656 104.344 25.6719 103.312 26.1094C103.312 26.2344 103.359 26.2969 103.453 26.2969C103.578 26.2969 103.625 26.375 103.594 26.5312C104.344 27 104.938 27.375 105.375 27.6562C105.812 27.9375 106.219 28.1719 106.594 28.3594C107 28.5469 107.422 28.7188 107.859 28.875C108.328 29 108.969 29.1562 109.781 29.3438C110.594 29.5312 111.219 29.6875 111.656 29.8125C112.125 29.9062 112.547 30 112.922 30.0938C113.297 30.1562 113.672 30.2188 114.047 30.2812C114.453 30.3125 115.016 30.3594 115.734 30.4219C116.016 30.7031 116.25 31.0469 116.438 31.4531C116.656 31.8281 116.797 32.2188 116.859 32.625C116.922 33 116.938 33.375 116.906 33.75C116.875 34.0938 116.766 34.375 116.578 34.5938C116.609 34.6875 116.672 34.7344 116.766 34.7344C116.891 34.7031 117.016 34.7031 117.141 34.7344C116.953 34.8594 116.797 35.0156 116.672 35.2031C116.547 35.3906 116.422 35.5781 116.297 35.7656C116.172 35.9531 116.031 36.1094 115.875 36.2344C115.719 36.3906 115.5 36.4844 115.219 36.5156C114.25 36.8906 113.031 36.9062 111.562 36.5625C110.094 36.25 108.234 35.6562 105.984 34.7812C104.859 34.3438 103.938 33.9688 103.219 33.6562C102.531 33.3125 101.922 32.9844 101.391 32.6719C100.891 32.3281 100.422 31.9688 99.9844 31.5938C99.5781 31.2188 99.0781 30.7656 98.4844 30.2344ZM105.188 14.1562C104.844 14.6562 104.453 15.1094 104.016 15.5156C103.609 15.9219 103.203 16.3438 102.797 16.7812C102.422 17.1875 102.078 17.6562 101.766 18.1875C101.453 18.6875 101.234 19.2812 101.109 19.9688C102.203 19.8438 103.344 19.5469 104.531 19.0781C105.719 18.5781 106.844 18.1094 107.906 17.6719C107.781 16.7031 107.438 15.9219 106.875 15.3281C106.344 14.7344 105.781 14.3438 105.188 14.1562Z" fill="white"/>
<path d="M85.5 31.8281C85.6562 32.7656 85.5938 33.5 85.3125 34.0312C85.0625 34.5625 84.6875 34.9531 84.1875 35.2031C83.7188 35.4844 83.1719 35.6406 82.5469 35.6719C81.9219 35.7031 81.3281 35.6719 80.7656 35.5781C80.4531 35.1406 80.1719 34.5938 79.9219 33.9375C79.6719 33.2812 79.4375 32.6094 79.2188 31.9219C79 31.2031 78.7969 30.5 78.6094 29.8125C78.4531 29.125 78.3125 28.5156 78.1875 27.9844C78.3438 27.6094 78.4375 27.1875 78.4688 26.7188C78.5312 26.2188 78.5625 25.7188 78.5625 25.2188C78.5938 24.7188 78.6094 24.2188 78.6094 23.7188C78.6406 23.1875 78.6875 22.6875 78.75 22.2188C78.9688 20.9062 79.2812 19.6562 79.6875 18.4688C80.125 17.2812 80.4688 16.0469 80.7188 14.7656C80.7812 14.4844 80.75 14.2188 80.625 13.9688C80.5312 13.7188 80.5156 13.4844 80.5781 13.2656C80.6094 13.1406 80.7031 13.0625 80.8594 13.0312C81.0156 12.9688 81.1094 12.8594 81.1406 12.7031C81.2344 12.3594 81.25 12.0781 81.1875 11.8594C81.1562 11.6406 81.2188 11.375 81.375 11.0625C81.5312 10.8125 81.7188 10.4531 81.9375 9.98438C82.1875 9.48438 82.2812 8.96875 82.2188 8.4375C82.5 8.25 82.7656 8.03125 83.0156 7.78125C83.2656 7.53125 83.5156 7.3125 83.7656 7.125C84.0469 6.90625 84.3438 6.71875 84.6562 6.5625C85 6.40625 85.4062 6.32812 85.875 6.32812C86.125 6.64062 86.2812 6.98438 86.3438 7.35938C86.4375 7.73438 86.5156 8.10938 86.5781 8.48438C86.6719 8.85938 86.7969 9.21875 86.9531 9.5625C87.1094 9.875 87.375 10.125 87.75 10.3125C87.75 10.5625 87.75 10.875 87.75 11.25C87.75 11.625 87.7656 12 87.7969 12.375C87.8281 12.7188 87.8906 13.0469 87.9844 13.3594C88.1094 13.6406 88.2969 13.8281 88.5469 13.9219C87.9844 15.4219 87.4531 16.9062 86.9531 18.375C86.4844 19.8438 86.0938 21.3281 85.7812 22.8281C85.4688 24.2969 85.2656 25.7812 85.1719 27.2812C85.1094 28.7812 85.2188 30.2969 85.5 31.8281Z" fill="white"/>
<path d="M62.3438 35.7188C61.25 35.2188 60.375 34.4844 59.7188 33.5156C59.0938 32.5469 58.4688 31.4688 57.8438 30.2812C57.75 30.0938 57.6562 29.9062 57.5625 29.7188C57.4688 29.5312 57.375 29.3594 57.2812 29.2031L56.625 27.9844L56.25 27.2344L55.6875 27.75L54.8438 28.5L54.375 28.9688C53.5625 29.7188 52.7344 30.4688 51.8906 31.2188C51.0781 31.9375 50.2031 32.5938 49.2656 33.1875C48.3594 33.75 47.3906 34.2188 46.3594 34.5938C45.3594 34.9375 44.2656 35.125 43.0781 35.1562L42.0469 34.6406C41.4531 34.3281 40.9531 34.0469 40.5469 33.7969C40.1406 33.5469 39.6719 33.1562 39.1406 32.625C38.9844 32.3438 38.8438 32.0781 38.7188 31.8281C38.625 31.5781 38.5156 31.3281 38.3906 31.0781C38.0469 30.4531 37.7656 29.8906 37.5469 29.3906C37.3281 28.8906 37.1094 28.3281 36.8906 27.7031C36.9844 27.2656 37.125 26.5312 37.3125 25.5C37.5 24.4375 37.7188 23.2812 37.9688 22.0312C38.25 20.7812 38.5312 19.5312 38.8125 18.2812C39.125 17 39.4375 15.8906 39.75 14.9531C40.0312 14.1406 40.3438 13.2812 40.6875 12.375C41.0625 11.4688 41.4531 10.6406 41.8594 9.89062C42.2969 9.10938 42.7656 8.45312 43.2656 7.92188C43.7656 7.35938 44.2969 7.03125 44.8594 6.9375C45.0156 7.15625 45.1875 7.3125 45.375 7.40625C45.5625 7.5 45.7344 7.57812 45.8906 7.64062C46.3281 8.26562 46.75 8.79688 47.1562 9.23438C47.5938 9.67188 48.0938 10.1094 48.6562 10.5469C48.5 11.3281 48.2656 12.2031 47.9531 13.1719C47.6719 14.1094 47.3594 15.0625 47.0156 16.0312C46.7031 16.9688 46.3906 17.8906 46.0781 18.7969C45.7656 19.7031 45.5156 20.4844 45.3281 21.1406C45.1406 21.6719 44.9844 22.2656 44.8594 22.9219C44.5781 24.0781 44.3125 25.6562 44.0625 27.6562C44.4375 27.5625 44.8438 27.3594 45.2812 27.0469C45.7188 26.7344 46.1406 26.4062 46.5469 26.0625C47.0156 25.6875 47.4844 25.2656 47.9531 24.7969C48.5469 24.2031 49.0469 23.6562 49.4531 23.1562C49.8594 22.6562 50.2344 22.1406 50.5781 21.6094C50.9531 21.0781 51.3281 20.5 51.7031 19.875C52.0781 19.2188 52.5312 18.4531 53.0625 17.5781C53.5312 16.8281 54.0156 16.0312 54.5156 15.1875C55.0469 14.3125 55.5625 13.4844 56.0625 12.7031C56.5938 11.8906 57.1094 11.1562 57.6094 10.5C58.1094 9.84375 58.5625 9.32812 58.9688 8.95312C59.2188 9.26562 59.5312 9.5625 59.9062 9.84375C60.3125 10.125 60.7344 10.3438 61.1719 10.5C61.3594 10.7812 61.5312 11.0469 61.6875 11.2969C61.875 11.5156 62.0469 11.7188 62.2031 11.9062C62.3906 12.1875 62.5625 12.4531 62.7188 12.7031C62.9062 12.9531 63.0781 13.2031 63.2344 13.4531C63.2031 13.6719 63.1562 13.9531 63.0938 14.2969C63.0312 14.6406 62.9531 15.0156 62.8594 15.4219C62.7969 15.8281 62.7188 16.25 62.625 16.6875C62.5312 17.0938 62.4375 17.4844 62.3438 17.8594C62.0938 19.0469 61.9062 19.9375 61.7812 20.5312C61.6562 21.125 61.5625 21.5938 61.5 21.9375C61.4688 22.2812 61.4375 22.5781 61.4062 22.8281C61.4062 23.0469 61.4062 23.3594 61.4062 23.7656C61.375 24.0781 61.3906 24.3906 61.4531 24.7031C61.4844 24.9844 61.5469 25.2812 61.6406 25.5938C61.7344 25.9062 61.8594 26.1875 62.0156 26.4375L63.8906 24.9844C64.4219 24.5781 64.9219 24.0312 65.3906 23.3438C65.8906 22.625 66.3594 21.8125 66.7969 20.9062C67.2656 19.9688 67.7188 18.9531 68.1562 17.8594C68.5938 16.7656 69.0312 15.6562 69.4688 14.5312C70.125 12.875 70.7812 11.2656 71.4375 9.70312C72.125 8.14062 72.7812 6.9375 73.4062 6.09375C74.0938 6.53125 74.6875 6.98438 75.1875 7.45312C75.7188 7.89062 76.1719 8.375 76.5469 8.90625C76.9219 9.4375 77.2188 10.0469 77.4375 10.7344C77.6875 11.4219 77.8594 12.2344 77.9531 13.1719C77.3906 14.2656 76.8438 15.3906 76.3125 16.5469C75.8125 17.7031 75.3281 18.8594 74.8594 20.0156C74.2344 21.5156 73.5781 23.0156 72.8906 24.5156C72.2344 26.0156 71.5 27.4531 70.6875 28.8281C69.875 30.1719 68.9688 31.4219 67.9688 32.5781C66.9688 33.7031 65.8125 34.6562 64.5 35.4375C64.1562 35.3438 63.8594 35.2969 63.6094 35.2969C63.1094 35.2969 62.6875 35.4375 62.3438 35.7188Z" fill="white"/>
<path d="M0.9375 31.0312C0.9375 30.5312 0.890625 30.0938 0.796875 29.7188C0.734375 29.3125 0.65625 28.9375 0.5625 28.5938C0.5 28.25 0.453125 27.8906 0.421875 27.5156C0.390625 27.1406 0.4375 26.7031 0.5625 26.2031C0.46875 25.9219 0.375 25.6562 0.28125 25.4062C0.1875 25.125 0.09375 24.8438 0 24.5625C0.0625 23.1562 0.34375 21.8906 0.84375 20.7656C1.34375 19.6094 1.95312 18.5625 2.67188 17.625C3.39062 16.6562 4.17188 15.7812 5.01562 15C5.85938 14.1875 6.67188 13.4062 7.45312 12.6562C7.60938 12.8125 7.71875 12.8438 7.78125 12.75C7.875 12.625 8.0625 12.5938 8.34375 12.6562C8.375 12.4688 8.46875 12.2344 8.625 11.9531C8.78125 11.6719 8.96875 11.4219 9.1875 11.2031C9.4375 10.9531 9.70312 10.75 9.98438 10.5938C10.2656 10.4375 10.5312 10.375 10.7812 10.4062C11.0938 9.8125 11.5625 9.29688 12.1875 8.85938C12.8438 8.39062 13.5 7.9375 14.1562 7.5C14.8125 7.0625 15.4062 6.57812 15.9375 6.04688C16.4688 5.51562 16.7969 4.85938 16.9219 4.07812H17.8594C17.4844 3.51562 17.3125 2.9375 17.3438 2.34375C17.375 1.71875 17.5625 1.21875 17.9062 0.84375C18.2812 0.4375 18.7812 0.1875 19.4062 0.09375C20.0312 0 20.75 0.15625 21.5625 0.5625C21.9062 0.625 22.1406 0.5625 22.2656 0.375C22.3906 0.1875 22.5938 0.0625 22.875 0C24.3125 0.625 25.5938 1.39062 26.7188 2.29688C27.8438 3.20312 28.8594 4.23438 29.7656 5.39062C29.7031 5.48438 29.625 5.5625 29.5312 5.625C29.4688 5.65625 29.4062 5.70312 29.3438 5.76562C29.2812 5.79688 29.2344 5.84375 29.2031 5.90625C29.2031 5.96875 29.2656 6.04688 29.3906 6.14062C30.4531 7.48438 31.4062 8.92188 32.25 10.4531C33.0938 11.9531 33.875 13.5469 34.5938 15.2344C34.75 16.5156 34.7969 17.7969 34.7344 19.0781C34.6719 20.3281 34.5 21.6562 34.2188 23.0625C33.9688 23.5938 33.6719 24.0938 33.3281 24.5625C33.0156 25 32.6719 25.4375 32.2969 25.875C31.9219 26.2812 31.5469 26.7031 31.1719 27.1406C30.7969 27.5469 30.4531 27.9844 30.1406 28.4531L30.9375 30.3281C30.9062 30.5781 30.9531 30.8594 31.0781 31.1719C31.2031 31.4531 31.3281 31.75 31.4531 32.0625C31.5781 32.3438 31.6719 32.625 31.7344 32.9062C31.8281 33.1875 31.8281 33.4219 31.7344 33.6094C31.8281 33.7969 32.0312 33.8594 32.3438 33.7969C32.2188 33.8594 32.125 33.9844 32.0625 34.1719C32.0312 34.3594 32.1875 34.4219 32.5312 34.3594C32.4688 34.7031 32.3281 35.0938 32.1094 35.5312C31.8906 35.9688 31.6094 36.375 31.2656 36.75C30.9219 37.1562 30.5 37.4844 30 37.7344C29.5312 38.0156 29 38.1562 28.4062 38.1562C27.7812 37.8438 27.2812 37.5312 26.9062 37.2188C26.5625 36.9062 26.1406 36.5312 25.6406 36.0938L23.9062 32.0156C21.625 33.0469 19.1875 33.8906 16.5938 34.5469C14 35.1719 11.25 35.5625 8.34375 35.7188C6.78125 35.2812 5.35938 34.6875 4.07812 33.9375C2.79688 33.1875 1.75 32.2188 0.9375 31.0312ZM12.9844 18.6562C11.6094 19.7812 10.3594 21.0938 9.23438 22.5938C8.14062 24.0938 7.25 25.7344 6.5625 27.5156C6.84375 27.6719 7.1875 27.7656 7.59375 27.7969C8 27.8281 8.375 27.8906 8.71875 27.9844C10.5 27.4844 12.3281 27.0156 14.2031 26.5781C16.1094 26.1094 17.9375 25.5312 19.6875 24.8438C18.9688 23.9688 18.2812 23.125 17.625 22.3125C17 21.5 16.5 20.6875 16.125 19.875C16.2188 19.6875 16.2969 19.4688 16.3594 19.2188C16.4531 18.9688 16.5625 18.7188 16.6875 18.4688C16.8125 18.2188 16.9844 18 17.2031 17.8125C17.4219 17.625 17.7188 17.5312 18.0938 17.5312C18.6562 17.75 19.3125 17.875 20.0625 17.9062C20.8438 17.9375 21.5469 18.0156 22.1719 18.1406C22.7969 18.5781 23.3438 19.125 23.8125 19.7812C24.2812 20.4062 24.75 21.0312 25.2188 21.6562C25.9062 21.0312 26.5 20.3438 27 19.5938C27.5 18.8125 27.875 17.9375 28.125 16.9688C27.9375 16.4688 27.7031 15.9062 27.4219 15.2812C27.1406 14.6562 26.8125 14.0469 26.4375 13.4531C26.0938 12.8594 25.6875 12.3281 25.2188 11.8594C24.7812 11.3906 24.2969 11.0781 23.7656 10.9219C23.5156 10.8594 23.3438 10.9062 23.25 11.0625C23.1875 11.1875 23 11.2031 22.6875 11.1094C21 12.3281 19.3125 13.5312 17.625 14.7188C15.9375 15.875 14.3906 17.1875 12.9844 18.6562Z" fill="white"/>
</svg>
