<svg width="183" height="59" viewBox="0 0 183 59" fill="none" xmlns="http://www.w3.org/2000/svg">
<g filter="url(#filter0_d_1_41)">
<path d="M4 7C4 3.13401 7.13401 0 11 0H172C175.866 0 179 3.13401 179 7V44C179 47.866 175.866 51 172 51H11C7.13401 51 4 47.866 4 44V7Z" fill="#4197AF"/>
</g>
<path d="M166.992 39.4219C167.055 39.6719 167.102 39.9062 167.133 40.125C167.164 40.3438 167.211 40.5781 167.273 40.8281C167.148 41.1406 167.039 41.4531 166.945 41.7656C166.852 42.0469 166.758 42.3281 166.664 42.6094C166.57 42.8281 166.508 42.9688 166.477 43.0312C166.445 43.0938 166.43 43.1406 166.43 43.1719C166.43 43.2031 166.43 43.25 166.43 43.3125C166.461 43.3438 166.477 43.4688 166.477 43.6875L166.289 44.25C166.133 44.4688 165.945 44.6406 165.727 44.7656C165.508 44.8906 165.289 45 165.07 45.0938C165.008 45.1562 164.914 45.2031 164.789 45.2344C164.664 45.2969 164.57 45.3594 164.508 45.4219L164.367 45.9844L163.758 46.0781C163.227 46.2031 162.773 46.2656 162.398 46.2656H161.836C161.461 45.9219 161.164 45.6562 160.945 45.4688C160.727 45.2812 160.492 45.1094 160.242 44.9531C159.93 44.5156 159.758 44.2031 159.727 44.0156C159.695 43.7969 159.648 43.5938 159.586 43.4062C159.523 43 159.445 42.7344 159.352 42.6094L158.695 41.9531L159.258 41.5312L158.742 40.6406C159.117 40.3594 159.398 40.1562 159.586 40.0312C159.773 39.9062 159.93 39.7812 160.055 39.6562C160.18 39.5 160.32 39.3125 160.477 39.0938C160.633 38.875 160.883 38.5156 161.227 38.0156L161.648 37.4062L162.258 37.7344C162.383 37.8281 162.648 37.9219 163.055 38.0156C163.492 38.0781 163.867 38.1406 164.18 38.2031C164.711 38.3594 165.211 38.4844 165.68 38.5781C166.148 38.6406 166.523 38.7969 166.805 39.0469L166.992 39.4219Z" fill="white"/>
<path d="M146.93 44.4844C146.055 44.7656 145.102 45.0469 144.07 45.3281C143.039 45.6094 142.008 45.75 140.977 45.75C139.414 45.75 138.18 45.3594 137.273 44.5781C137.117 44.2344 136.977 44 136.852 43.875C136.758 43.75 136.664 43.625 136.57 43.5C136.508 43.3438 136.461 43.1406 136.43 42.8906C136.055 42.4531 135.758 41.9531 135.539 41.3906C135.32 40.7969 135.164 40.2031 135.07 39.6094C135.008 38.9844 134.992 38.3594 135.023 37.7344C135.086 37.1094 135.195 36.5156 135.352 35.9531C135.414 35.8281 135.445 35.7031 135.445 35.5781C135.477 35.4531 135.508 35.3125 135.539 35.1562C135.664 34.6562 135.789 34.1719 135.914 33.7031C136.07 33.2344 136.273 32.8281 136.523 32.4844C136.398 32.2031 136.398 31.8906 136.523 31.5469C136.648 31.2031 136.789 30.8906 136.945 30.6094C137.383 29.4219 137.742 28.4219 138.023 27.6094C138.336 26.7656 138.648 25.9375 138.961 25.125C139.492 23.7188 139.992 22.3281 140.461 20.9531C140.93 19.5781 141.352 18.0938 141.727 16.5C141.977 16.3438 142.164 16.2344 142.289 16.1719C142.477 16.1094 142.633 16.0625 142.758 16.0312C143.32 16.3125 143.977 16.5938 144.727 16.875C145.477 17.125 146.102 17.25 146.602 17.25C146.852 17.4062 147.008 17.5312 147.07 17.625C147.133 17.6875 147.195 17.75 147.258 17.8125C147.602 18.2188 147.898 18.6406 148.148 19.0781C148.398 19.4844 148.477 20.0312 148.383 20.7188C148.195 21 148.055 21.1406 147.961 21.1406C147.805 21.7656 147.633 22.2969 147.445 22.7344C147.289 23.1719 147.117 23.6094 146.93 24.0469C146.711 24.5156 146.508 24.9844 146.32 25.4531C146.133 25.9219 145.977 26.5 145.852 27.1875C145.727 27.3438 145.633 27.4844 145.57 27.6094C145.539 27.7344 145.492 27.875 145.43 28.0312C145.367 28.1875 145.289 28.3594 145.195 28.5469C145.133 28.7031 145.023 28.8438 144.867 28.9688C144.773 29.7812 144.617 30.4375 144.398 30.9375C144.211 31.4375 144.008 31.9375 143.789 32.4375C143.414 33.3438 143.07 34.25 142.758 35.1562C142.477 36.0625 142.305 37.0938 142.242 38.25C142.398 38.1875 142.539 38.1562 142.664 38.1562C142.82 38.1562 142.961 38.1562 143.086 38.1562C143.367 38.1562 143.695 38.2031 144.07 38.2969C145.008 37.7969 146.023 37.5 147.117 37.4062C148.242 37.3125 149.352 37.25 150.445 37.2188C150.883 37.2188 151.32 37.2188 151.758 37.2188C152.195 37.2188 152.602 37.1875 152.977 37.125C153.258 37.2812 153.43 37.375 153.492 37.4062C153.586 37.4062 153.711 37.4062 153.867 37.4062C154.086 37.4062 154.273 37.4219 154.43 37.4531C154.805 37.7969 155.164 38.0469 155.508 38.2031C155.852 38.3594 156.211 38.5 156.586 38.625C156.93 38.75 157.258 38.8906 157.57 39.0469C157.914 39.1719 158.242 39.3594 158.555 39.6094L158.883 41.625C159.102 41.9062 159.195 42.0938 159.164 42.1875C159.164 42.4375 159.102 42.625 158.977 42.75L159.07 43.2656C158.602 43.3594 158.273 43.4688 158.086 43.5938C157.93 43.7188 157.773 43.8594 157.617 44.0156C157.367 44.0469 157.18 44.0625 157.055 44.0625C156.961 44.0625 156.867 44.0625 156.773 44.0625C156.336 44.0625 155.805 44.1406 155.18 44.2969C154.336 44.0156 153.461 43.875 152.555 43.875C152.211 43.875 151.852 43.8906 151.477 43.9219C151.102 43.9531 150.727 43.9844 150.352 44.0156C149.977 44.0781 149.586 44.125 149.18 44.1562C148.805 44.1875 148.414 44.2031 148.008 44.2031L146.93 44.4844Z" fill="white"/>
<path d="M116.133 40.125C115.789 41.375 115.477 42.3281 115.195 42.9844C114.945 43.6094 114.555 44.2656 114.023 44.9531C113.617 44.8906 113.336 44.9375 113.18 45.0938C113.023 45.25 112.852 45.3906 112.664 45.5156C112.383 45.5781 112.18 45.5781 112.055 45.5156C111.93 45.4531 111.82 45.375 111.727 45.2812C111.633 45.2188 111.508 45.1406 111.352 45.0469C111.227 44.9844 111.023 44.9531 110.742 44.9531C110.68 44.7031 110.602 44.4688 110.508 44.25C110.445 44.0312 110.242 43.9531 109.898 44.0156C109.961 43.7656 109.977 43.5625 109.945 43.4062C109.914 43.2188 109.867 43.0625 109.805 42.9375C109.773 42.7812 109.742 42.6406 109.711 42.5156C109.68 42.3594 109.695 42.1719 109.758 41.9531C109.602 41.9531 109.477 41.8438 109.383 41.625C109.289 41.4062 109.18 41.1875 109.055 40.9688C109.148 40.4062 109.242 39.875 109.336 39.375C109.43 38.875 109.539 38.4062 109.664 37.9688C109.82 37.5312 109.945 37.0938 110.039 36.6562C110.133 36.2188 110.086 35.7656 109.898 35.2969C110.023 35.3906 110.117 35.375 110.18 35.25C110.242 35.0938 110.289 34.9062 110.32 34.6875C110.352 34.4375 110.367 34.2031 110.367 33.9844C110.367 33.7344 110.352 33.5312 110.32 33.375C110.633 32.5625 110.883 31.7344 111.07 30.8906C111.289 30.0156 111.477 29.1562 111.633 28.3125C111.82 27.4688 112.008 26.6406 112.195 25.8281C112.383 25.0156 112.633 24.2656 112.945 23.5781C113.289 23.5156 113.664 23.5625 114.07 23.7188C114.508 23.8438 114.773 24.0156 114.867 24.2344C115.68 23.6094 116.398 22.8594 117.023 21.9844C117.648 21.0781 118.289 20.2031 118.945 19.3594C119.602 18.5156 120.32 17.7656 121.102 17.1094C121.914 16.4531 122.93 16.0625 124.148 15.9375C124.773 16.4062 125.461 16.8906 126.211 17.3906C126.992 17.8594 127.633 18.4844 128.133 19.2656C128.383 19.3906 128.586 19.5312 128.742 19.6875C128.93 19.8125 129.148 19.9531 129.398 20.1094V20.6719C129.773 21.0156 130.07 21.4219 130.289 21.8906C130.539 22.3281 130.758 22.8125 130.945 23.3438C131.133 23.8438 131.32 24.3594 131.508 24.8906C131.695 25.3906 131.914 25.875 132.164 26.3438C132.102 26.5 132.07 26.6406 132.07 26.7656C132.07 26.8594 132.086 26.9688 132.117 27.0938C132.18 27.2188 132.227 27.3438 132.258 27.4688C132.289 27.5938 132.289 27.7656 132.258 27.9844C132.164 29.3594 131.711 30.4688 130.898 31.3125C130.117 32.1562 129.164 32.8594 128.039 33.4219C126.914 33.9531 125.711 34.4062 124.43 34.7812C123.148 35.1562 121.992 35.5625 120.961 36C120.961 36.125 121.008 36.1875 121.102 36.1875C121.227 36.1875 121.273 36.2656 121.242 36.4219C121.992 36.8906 122.586 37.2656 123.023 37.5469C123.461 37.8281 123.867 38.0625 124.242 38.25C124.648 38.4375 125.07 38.6094 125.508 38.7656C125.977 38.8906 126.617 39.0469 127.43 39.2344C128.242 39.4219 128.867 39.5781 129.305 39.7031C129.773 39.7969 130.195 39.8906 130.57 39.9844C130.945 40.0469 131.32 40.1094 131.695 40.1719C132.102 40.2031 132.664 40.25 133.383 40.3125C133.664 40.5938 133.898 40.9375 134.086 41.3438C134.305 41.7188 134.445 42.1094 134.508 42.5156C134.57 42.8906 134.586 43.2656 134.555 43.6406C134.523 43.9844 134.414 44.2656 134.227 44.4844C134.258 44.5781 134.32 44.625 134.414 44.625C134.539 44.5938 134.664 44.5938 134.789 44.625C134.602 44.75 134.445 44.9062 134.32 45.0938C134.195 45.2812 134.07 45.4688 133.945 45.6562C133.82 45.8438 133.68 46 133.523 46.125C133.367 46.2812 133.148 46.375 132.867 46.4062C131.898 46.7812 130.68 46.7969 129.211 46.4531C127.742 46.1406 125.883 45.5469 123.633 44.6719C122.508 44.2344 121.586 43.8594 120.867 43.5469C120.18 43.2031 119.57 42.875 119.039 42.5625C118.539 42.2188 118.07 41.8594 117.633 41.4844C117.227 41.1094 116.727 40.6562 116.133 40.125ZM122.836 24.0469C122.492 24.5469 122.102 25 121.664 25.4062C121.258 25.8125 120.852 26.2344 120.445 26.6719C120.07 27.0781 119.727 27.5469 119.414 28.0781C119.102 28.5781 118.883 29.1719 118.758 29.8594C119.852 29.7344 120.992 29.4375 122.18 28.9688C123.367 28.4688 124.492 28 125.555 27.5625C125.43 26.5938 125.086 25.8125 124.523 25.2188C123.992 24.625 123.43 24.2344 122.836 24.0469Z" fill="white"/>
<path d="M103.148 41.7188C103.305 42.6562 103.242 43.3906 102.961 43.9219C102.711 44.4531 102.336 44.8438 101.836 45.0938C101.367 45.375 100.82 45.5312 100.195 45.5625C99.5703 45.5938 98.9766 45.5625 98.4141 45.4688C98.1016 45.0312 97.8203 44.4844 97.5703 43.8281C97.3203 43.1719 97.0859 42.5 96.8672 41.8125C96.6484 41.0938 96.4453 40.3906 96.2578 39.7031C96.1016 39.0156 95.9609 38.4062 95.8359 37.875C95.9922 37.5 96.0859 37.0781 96.1172 36.6094C96.1797 36.1094 96.2109 35.6094 96.2109 35.1094C96.2422 34.6094 96.2578 34.1094 96.2578 33.6094C96.2891 33.0781 96.3359 32.5781 96.3984 32.1094C96.6172 30.7969 96.9297 29.5469 97.3359 28.3594C97.7734 27.1719 98.1172 25.9375 98.3672 24.6562C98.4297 24.375 98.3984 24.1094 98.2734 23.8594C98.1797 23.6094 98.1641 23.375 98.2266 23.1562C98.2578 23.0312 98.3516 22.9531 98.5078 22.9219C98.6641 22.8594 98.7578 22.75 98.7891 22.5938C98.8828 22.25 98.8984 21.9688 98.8359 21.75C98.8047 21.5312 98.8672 21.2656 99.0234 20.9531C99.1797 20.7031 99.3672 20.3438 99.5859 19.875C99.8359 19.375 99.9297 18.8594 99.8672 18.3281C100.148 18.1406 100.414 17.9219 100.664 17.6719C100.914 17.4219 101.164 17.2031 101.414 17.0156C101.695 16.7969 101.992 16.6094 102.305 16.4531C102.648 16.2969 103.055 16.2188 103.523 16.2188C103.773 16.5312 103.93 16.875 103.992 17.25C104.086 17.625 104.164 18 104.227 18.375C104.32 18.75 104.445 19.1094 104.602 19.4531C104.758 19.7656 105.023 20.0156 105.398 20.2031C105.398 20.4531 105.398 20.7656 105.398 21.1406C105.398 21.5156 105.414 21.8906 105.445 22.2656C105.477 22.6094 105.539 22.9375 105.633 23.25C105.758 23.5312 105.945 23.7188 106.195 23.8125C105.633 25.3125 105.102 26.7969 104.602 28.2656C104.133 29.7344 103.742 31.2188 103.43 32.7188C103.117 34.1875 102.914 35.6719 102.82 37.1719C102.758 38.6719 102.867 40.1875 103.148 41.7188Z" fill="white"/>
<path d="M79.9922 45.6094C78.8984 45.1094 78.0234 44.375 77.3672 43.4062C76.7422 42.4375 76.1172 41.3594 75.4922 40.1719C75.3984 39.9844 75.3047 39.7969 75.2109 39.6094C75.1172 39.4219 75.0234 39.25 74.9297 39.0938L74.2734 37.875L73.8984 37.125L73.3359 37.6406L72.4922 38.3906L72.0234 38.8594C71.2109 39.6094 70.3828 40.3594 69.5391 41.1094C68.7266 41.8281 67.8516 42.4844 66.9141 43.0781C66.0078 43.6406 65.0391 44.1094 64.0078 44.4844C63.0078 44.8281 61.9141 45.0156 60.7266 45.0469L59.6953 44.5312C59.1016 44.2188 58.6016 43.9375 58.1953 43.6875C57.7891 43.4375 57.3203 43.0469 56.7891 42.5156C56.6328 42.2344 56.4922 41.9688 56.3672 41.7188C56.2734 41.4688 56.1641 41.2188 56.0391 40.9688C55.6953 40.3438 55.4141 39.7812 55.1953 39.2812C54.9766 38.7812 54.7578 38.2188 54.5391 37.5938C54.6328 37.1562 54.7734 36.4219 54.9609 35.3906C55.1484 34.3281 55.3672 33.1719 55.6172 31.9219C55.8984 30.6719 56.1797 29.4219 56.4609 28.1719C56.7734 26.8906 57.0859 25.7812 57.3984 24.8438C57.6797 24.0312 57.9922 23.1719 58.3359 22.2656C58.7109 21.3594 59.1016 20.5312 59.5078 19.7812C59.9453 19 60.4141 18.3438 60.9141 17.8125C61.4141 17.25 61.9453 16.9219 62.5078 16.8281C62.6641 17.0469 62.8359 17.2031 63.0234 17.2969C63.2109 17.3906 63.3828 17.4688 63.5391 17.5312C63.9766 18.1562 64.3984 18.6875 64.8047 19.125C65.2422 19.5625 65.7422 20 66.3047 20.4375C66.1484 21.2188 65.9141 22.0938 65.6016 23.0625C65.3203 24 65.0078 24.9531 64.6641 25.9219C64.3516 26.8594 64.0391 27.7812 63.7266 28.6875C63.4141 29.5938 63.1641 30.375 62.9766 31.0312C62.7891 31.5625 62.6328 32.1562 62.5078 32.8125C62.2266 33.9688 61.9609 35.5469 61.7109 37.5469C62.0859 37.4531 62.4922 37.25 62.9297 36.9375C63.3672 36.625 63.7891 36.2969 64.1953 35.9531C64.6641 35.5781 65.1328 35.1562 65.6016 34.6875C66.1953 34.0938 66.6953 33.5469 67.1016 33.0469C67.5078 32.5469 67.8828 32.0312 68.2266 31.5C68.6016 30.9688 68.9766 30.3906 69.3516 29.7656C69.7266 29.1094 70.1797 28.3438 70.7109 27.4688C71.1797 26.7188 71.6641 25.9219 72.1641 25.0781C72.6953 24.2031 73.2109 23.375 73.7109 22.5938C74.2422 21.7812 74.7578 21.0469 75.2578 20.3906C75.7578 19.7344 76.2109 19.2188 76.6172 18.8438C76.8672 19.1562 77.1797 19.4531 77.5547 19.7344C77.9609 20.0156 78.3828 20.2344 78.8203 20.3906C79.0078 20.6719 79.1797 20.9375 79.3359 21.1875C79.5234 21.4062 79.6953 21.6094 79.8516 21.7969C80.0391 22.0781 80.2109 22.3438 80.3672 22.5938C80.5547 22.8438 80.7266 23.0938 80.8828 23.3438C80.8516 23.5625 80.8047 23.8438 80.7422 24.1875C80.6797 24.5312 80.6016 24.9062 80.5078 25.3125C80.4453 25.7188 80.3672 26.1406 80.2734 26.5781C80.1797 26.9844 80.0859 27.375 79.9922 27.75C79.7422 28.9375 79.5547 29.8281 79.4297 30.4219C79.3047 31.0156 79.2109 31.4844 79.1484 31.8281C79.1172 32.1719 79.0859 32.4688 79.0547 32.7188C79.0547 32.9375 79.0547 33.25 79.0547 33.6562C79.0234 33.9688 79.0391 34.2812 79.1016 34.5938C79.1328 34.875 79.1953 35.1719 79.2891 35.4844C79.3828 35.7969 79.5078 36.0781 79.6641 36.3281L81.5391 34.875C82.0703 34.4688 82.5703 33.9219 83.0391 33.2344C83.5391 32.5156 84.0078 31.7031 84.4453 30.7969C84.9141 29.8594 85.3672 28.8438 85.8047 27.75C86.2422 26.6562 86.6797 25.5469 87.1172 24.4219C87.7734 22.7656 88.4297 21.1562 89.0859 19.5938C89.7734 18.0312 90.4297 16.8281 91.0547 15.9844C91.7422 16.4219 92.3359 16.875 92.8359 17.3438C93.3672 17.7812 93.8203 18.2656 94.1953 18.7969C94.5703 19.3281 94.8672 19.9375 95.0859 20.625C95.3359 21.3125 95.5078 22.125 95.6016 23.0625C95.0391 24.1562 94.4922 25.2812 93.9609 26.4375C93.4609 27.5938 92.9766 28.75 92.5078 29.9062C91.8828 31.4062 91.2266 32.9062 90.5391 34.4062C89.8828 35.9062 89.1484 37.3438 88.3359 38.7188C87.5234 40.0625 86.6172 41.3125 85.6172 42.4688C84.6172 43.5938 83.4609 44.5469 82.1484 45.3281C81.8047 45.2344 81.5078 45.1875 81.2578 45.1875C80.7578 45.1875 80.3359 45.3281 79.9922 45.6094Z" fill="white"/>
<path d="M18.5859 40.9219C18.5859 40.4219 18.5391 39.9844 18.4453 39.6094C18.3828 39.2031 18.3047 38.8281 18.2109 38.4844C18.1484 38.1406 18.1016 37.7812 18.0703 37.4062C18.0391 37.0312 18.0859 36.5938 18.2109 36.0938C18.1172 35.8125 18.0234 35.5469 17.9297 35.2969C17.8359 35.0156 17.7422 34.7344 17.6484 34.4531C17.7109 33.0469 17.9922 31.7812 18.4922 30.6562C18.9922 29.5 19.6016 28.4531 20.3203 27.5156C21.0391 26.5469 21.8203 25.6719 22.6641 24.8906C23.5078 24.0781 24.3203 23.2969 25.1016 22.5469C25.2578 22.7031 25.3672 22.7344 25.4297 22.6406C25.5234 22.5156 25.7109 22.4844 25.9922 22.5469C26.0234 22.3594 26.1172 22.125 26.2734 21.8438C26.4297 21.5625 26.6172 21.3125 26.8359 21.0938C27.0859 20.8438 27.3516 20.6406 27.6328 20.4844C27.9141 20.3281 28.1797 20.2656 28.4297 20.2969C28.7422 19.7031 29.2109 19.1875 29.8359 18.75C30.4922 18.2812 31.1484 17.8281 31.8047 17.3906C32.4609 16.9531 33.0547 16.4688 33.5859 15.9375C34.1172 15.4062 34.4453 14.75 34.5703 13.9688H35.5078C35.1328 13.4062 34.9609 12.8281 34.9922 12.2344C35.0234 11.6094 35.2109 11.1094 35.5547 10.7344C35.9297 10.3281 36.4297 10.0781 37.0547 9.98438C37.6797 9.89062 38.3984 10.0469 39.2109 10.4531C39.5547 10.5156 39.7891 10.4531 39.9141 10.2656C40.0391 10.0781 40.2422 9.95312 40.5234 9.89062C41.9609 10.5156 43.2422 11.2812 44.3672 12.1875C45.4922 13.0938 46.5078 14.125 47.4141 15.2812C47.3516 15.375 47.2734 15.4531 47.1797 15.5156C47.1172 15.5469 47.0547 15.5938 46.9922 15.6562C46.9297 15.6875 46.8828 15.7344 46.8516 15.7969C46.8516 15.8594 46.9141 15.9375 47.0391 16.0312C48.1016 17.375 49.0547 18.8125 49.8984 20.3438C50.7422 21.8438 51.5234 23.4375 52.2422 25.125C52.3984 26.4062 52.4453 27.6875 52.3828 28.9688C52.3203 30.2188 52.1484 31.5469 51.8672 32.9531C51.6172 33.4844 51.3203 33.9844 50.9766 34.4531C50.6641 34.8906 50.3203 35.3281 49.9453 35.7656C49.5703 36.1719 49.1953 36.5938 48.8203 37.0312C48.4453 37.4375 48.1016 37.875 47.7891 38.3438L48.5859 40.2188C48.5547 40.4688 48.6016 40.75 48.7266 41.0625C48.8516 41.3438 48.9766 41.6406 49.1016 41.9531C49.2266 42.2344 49.3203 42.5156 49.3828 42.7969C49.4766 43.0781 49.4766 43.3125 49.3828 43.5C49.4766 43.6875 49.6797 43.75 49.9922 43.6875C49.8672 43.75 49.7734 43.875 49.7109 44.0625C49.6797 44.25 49.8359 44.3125 50.1797 44.25C50.1172 44.5938 49.9766 44.9844 49.7578 45.4219C49.5391 45.8594 49.2578 46.2656 48.9141 46.6406C48.5703 47.0469 48.1484 47.375 47.6484 47.625C47.1797 47.9062 46.6484 48.0469 46.0547 48.0469C45.4297 47.7344 44.9297 47.4219 44.5547 47.1094C44.2109 46.7969 43.7891 46.4219 43.2891 45.9844L41.5547 41.9062C39.2734 42.9375 36.8359 43.7812 34.2422 44.4375C31.6484 45.0625 28.8984 45.4531 25.9922 45.6094C24.4297 45.1719 23.0078 44.5781 21.7266 43.8281C20.4453 43.0781 19.3984 42.1094 18.5859 40.9219ZM30.6328 28.5469C29.2578 29.6719 28.0078 30.9844 26.8828 32.4844C25.7891 33.9844 24.8984 35.625 24.2109 37.4062C24.4922 37.5625 24.8359 37.6562 25.2422 37.6875C25.6484 37.7188 26.0234 37.7812 26.3672 37.875C28.1484 37.375 29.9766 36.9062 31.8516 36.4688C33.7578 36 35.5859 35.4219 37.3359 34.7344C36.6172 33.8594 35.9297 33.0156 35.2734 32.2031C34.6484 31.3906 34.1484 30.5781 33.7734 29.7656C33.8672 29.5781 33.9453 29.3594 34.0078 29.1094C34.1016 28.8594 34.2109 28.6094 34.3359 28.3594C34.4609 28.1094 34.6328 27.8906 34.8516 27.7031C35.0703 27.5156 35.3672 27.4219 35.7422 27.4219C36.3047 27.6406 36.9609 27.7656 37.7109 27.7969C38.4922 27.8281 39.1953 27.9062 39.8203 28.0312C40.4453 28.4688 40.9922 29.0156 41.4609 29.6719C41.9297 30.2969 42.3984 30.9219 42.8672 31.5469C43.5547 30.9219 44.1484 30.2344 44.6484 29.4844C45.1484 28.7031 45.5234 27.8281 45.7734 26.8594C45.5859 26.3594 45.3516 25.7969 45.0703 25.1719C44.7891 24.5469 44.4609 23.9375 44.0859 23.3438C43.7422 22.75 43.3359 22.2188 42.8672 21.75C42.4297 21.2812 41.9453 20.9688 41.4141 20.8125C41.1641 20.75 40.9922 20.7969 40.8984 20.9531C40.8359 21.0781 40.6484 21.0938 40.3359 21C38.6484 22.2188 36.9609 23.4219 35.2734 24.6094C33.5859 25.7656 32.0391 27.0781 30.6328 28.5469Z" fill="white"/>
<defs>
<filter id="filter0_d_1_41" x="0" y="0" width="183" height="59" filterUnits="userSpaceOnUse" color-interpolation-filters="sRGB">
<feFlood flood-opacity="0" result="BackgroundImageFix"/>
<feColorMatrix in="SourceAlpha" type="matrix" values="0 0 0 0 0 0 0 0 0 0 0 0 0 0 0 0 0 0 127 0" result="hardAlpha"/>
<feOffset dy="4"/>
<feGaussianBlur stdDeviation="2"/>
<feComposite in2="hardAlpha" operator="out"/>
<feColorMatrix type="matrix" values="0 0 0 0 0 0 0 0 0 0 0 0 0 0 0 0 0 0 0.25 0"/>
<feBlend mode="normal" in2="BackgroundImageFix" result="effect1_dropShadow_1_41"/>
<feBlend mode="normal" in="SourceGraphic" in2="effect1_dropShadow_1_41" result="shape"/>
</filter>
</defs>
</svg>
