<svg width="67" height="65" viewBox="0 0 67 65" fill="none" xmlns="http://www.w3.org/2000/svg">
<g filter="url(#filter0_d_1_20)">
<path d="M4 7C4 3.13401 7.13401 0 11 0H56C59.866 0 63 3.13401 63 7V50C63 53.866 59.866 57 56 57H11C7.13401 57 4 53.866 4 50V7Z" fill="#4197AF"/>
</g>
<path d="M54.7188 41.4219C54.7812 41.6719 54.8281 41.9062 54.8594 42.125C54.8906 42.3438 54.9375 42.5781 55 42.8281C54.875 43.1406 54.7656 43.4531 54.6719 43.7656C54.5781 44.0469 54.4844 44.3281 54.3906 44.6094C54.2969 44.8281 54.2344 44.9688 54.2031 45.0312C54.1719 45.0938 54.1562 45.1406 54.1562 45.1719C54.1562 45.2031 54.1562 45.25 54.1562 45.3125C54.1875 45.3438 54.2031 45.4688 54.2031 45.6875L54.0156 46.25C53.8594 46.4688 53.6719 46.6406 53.4531 46.7656C53.2344 46.8906 53.0156 47 52.7969 47.0938C52.7344 47.1562 52.6406 47.2031 52.5156 47.2344C52.3906 47.2969 52.2969 47.3594 52.2344 47.4219L52.0938 47.9844L51.4844 48.0781C50.9531 48.2031 50.5 48.2656 50.125 48.2656H49.5625C49.1875 47.9219 48.8906 47.6562 48.6719 47.4688C48.4531 47.2812 48.2188 47.1094 47.9688 46.9531C47.6562 46.5156 47.4844 46.2031 47.4531 46.0156C47.4219 45.7969 47.375 45.5938 47.3125 45.4062C47.25 45 47.1719 44.7344 47.0781 44.6094L46.4219 43.9531L46.9844 43.5312L46.4688 42.6406C46.8438 42.3594 47.125 42.1562 47.3125 42.0312C47.5 41.9062 47.6562 41.7812 47.7812 41.6562C47.9062 41.5 48.0469 41.3125 48.2031 41.0938C48.3594 40.875 48.6094 40.5156 48.9531 40.0156L49.375 39.4062L49.9844 39.7344C50.1094 39.8281 50.375 39.9219 50.7812 40.0156C51.2188 40.0781 51.5938 40.1406 51.9062 40.2031C52.4375 40.3594 52.9375 40.4844 53.4062 40.5781C53.875 40.6406 54.25 40.7969 54.5312 41.0469L54.7188 41.4219Z" fill="white"/>
<path d="M12.8594 42.9219C12.8594 42.4219 12.8125 41.9844 12.7188 41.6094C12.6562 41.2031 12.5781 40.8281 12.4844 40.4844C12.4219 40.1406 12.375 39.7812 12.3438 39.4062C12.3125 39.0312 12.3594 38.5938 12.4844 38.0938C12.3906 37.8125 12.2969 37.5469 12.2031 37.2969C12.1094 37.0156 12.0156 36.7344 11.9219 36.4531C11.9844 35.0469 12.2656 33.7812 12.7656 32.6562C13.2656 31.5 13.875 30.4531 14.5938 29.5156C15.3125 28.5469 16.0938 27.6719 16.9375 26.8906C17.7812 26.0781 18.5938 25.2969 19.375 24.5469C19.5312 24.7031 19.6406 24.7344 19.7031 24.6406C19.7969 24.5156 19.9844 24.4844 20.2656 24.5469C20.2969 24.3594 20.3906 24.125 20.5469 23.8438C20.7031 23.5625 20.8906 23.3125 21.1094 23.0938C21.3594 22.8438 21.625 22.6406 21.9062 22.4844C22.1875 22.3281 22.4531 22.2656 22.7031 22.2969C23.0156 21.7031 23.4844 21.1875 24.1094 20.75C24.7656 20.2812 25.4219 19.8281 26.0781 19.3906C26.7344 18.9531 27.3281 18.4688 27.8594 17.9375C28.3906 17.4062 28.7188 16.75 28.8438 15.9688H29.7812C29.4062 15.4062 29.2344 14.8281 29.2656 14.2344C29.2969 13.6094 29.4844 13.1094 29.8281 12.7344C30.2031 12.3281 30.7031 12.0781 31.3281 11.9844C31.9531 11.8906 32.6719 12.0469 33.4844 12.4531C33.8281 12.5156 34.0625 12.4531 34.1875 12.2656C34.3125 12.0781 34.5156 11.9531 34.7969 11.8906C36.2344 12.5156 37.5156 13.2812 38.6406 14.1875C39.7656 15.0938 40.7812 16.125 41.6875 17.2812C41.625 17.375 41.5469 17.4531 41.4531 17.5156C41.3906 17.5469 41.3281 17.5938 41.2656 17.6562C41.2031 17.6875 41.1562 17.7344 41.125 17.7969C41.125 17.8594 41.1875 17.9375 41.3125 18.0312C42.375 19.375 43.3281 20.8125 44.1719 22.3438C45.0156 23.8438 45.7969 25.4375 46.5156 27.125C46.6719 28.4062 46.7188 29.6875 46.6562 30.9688C46.5938 32.2188 46.4219 33.5469 46.1406 34.9531C45.8906 35.4844 45.5938 35.9844 45.25 36.4531C44.9375 36.8906 44.5938 37.3281 44.2188 37.7656C43.8438 38.1719 43.4688 38.5938 43.0938 39.0312C42.7188 39.4375 42.375 39.875 42.0625 40.3438L42.8594 42.2188C42.8281 42.4688 42.875 42.75 43 43.0625C43.125 43.3438 43.25 43.6406 43.375 43.9531C43.5 44.2344 43.5938 44.5156 43.6562 44.7969C43.75 45.0781 43.75 45.3125 43.6562 45.5C43.75 45.6875 43.9531 45.75 44.2656 45.6875C44.1406 45.75 44.0469 45.875 43.9844 46.0625C43.9531 46.25 44.1094 46.3125 44.4531 46.25C44.3906 46.5938 44.25 46.9844 44.0312 47.4219C43.8125 47.8594 43.5312 48.2656 43.1875 48.6406C42.8438 49.0469 42.4219 49.375 41.9219 49.625C41.4531 49.9062 40.9219 50.0469 40.3281 50.0469C39.7031 49.7344 39.2031 49.4219 38.8281 49.1094C38.4844 48.7969 38.0625 48.4219 37.5625 47.9844L35.8281 43.9062C33.5469 44.9375 31.1094 45.7812 28.5156 46.4375C25.9219 47.0625 23.1719 47.4531 20.2656 47.6094C18.7031 47.1719 17.2812 46.5781 16 45.8281C14.7188 45.0781 13.6719 44.1094 12.8594 42.9219ZM24.9062 30.5469C23.5312 31.6719 22.2812 32.9844 21.1562 34.4844C20.0625 35.9844 19.1719 37.625 18.4844 39.4062C18.7656 39.5625 19.1094 39.6562 19.5156 39.6875C19.9219 39.7188 20.2969 39.7812 20.6406 39.875C22.4219 39.375 24.25 38.9062 26.125 38.4688C28.0312 38 29.8594 37.4219 31.6094 36.7344C30.8906 35.8594 30.2031 35.0156 29.5469 34.2031C28.9219 33.3906 28.4219 32.5781 28.0469 31.7656C28.1406 31.5781 28.2188 31.3594 28.2812 31.1094C28.375 30.8594 28.4844 30.6094 28.6094 30.3594C28.7344 30.1094 28.9062 29.8906 29.125 29.7031C29.3438 29.5156 29.6406 29.4219 30.0156 29.4219C30.5781 29.6406 31.2344 29.7656 31.9844 29.7969C32.7656 29.8281 33.4688 29.9062 34.0938 30.0312C34.7188 30.4688 35.2656 31.0156 35.7344 31.6719C36.2031 32.2969 36.6719 32.9219 37.1406 33.5469C37.8281 32.9219 38.4219 32.2344 38.9219 31.4844C39.4219 30.7031 39.7969 29.8281 40.0469 28.8594C39.8594 28.3594 39.625 27.7969 39.3438 27.1719C39.0625 26.5469 38.7344 25.9375 38.3594 25.3438C38.0156 24.75 37.6094 24.2188 37.1406 23.75C36.7031 23.2812 36.2188 22.9688 35.6875 22.8125C35.4375 22.75 35.2656 22.7969 35.1719 22.9531C35.1094 23.0781 34.9219 23.0938 34.6094 23C32.9219 24.2188 31.2344 25.4219 29.5469 26.6094C27.8594 27.7656 26.3125 29.0781 24.9062 30.5469Z" fill="white"/>
<defs>
<filter id="filter0_d_1_20" x="0" y="0" width="67" height="65" filterUnits="userSpaceOnUse" color-interpolation-filters="sRGB">
<feFlood flood-opacity="0" result="BackgroundImageFix"/>
<feColorMatrix in="SourceAlpha" type="matrix" values="0 0 0 0 0 0 0 0 0 0 0 0 0 0 0 0 0 0 127 0" result="hardAlpha"/>
<feOffset dy="4"/>
<feGaussianBlur stdDeviation="2"/>
<feComposite in2="hardAlpha" operator="out"/>
<feColorMatrix type="matrix" values="0 0 0 0 0 0 0 0 0 0 0 0 0 0 0 0 0 0 0.25 0"/>
<feBlend mode="normal" in2="BackgroundImageFix" result="effect1_dropShadow_1_20"/>
<feBlend mode="normal" in="SourceGraphic" in2="effect1_dropShadow_1_20" result="shape"/>
</filter>
</defs>
</svg>
