<svg width="67" height="65" viewBox="0 0 67 65" fill="none" xmlns="http://www.w3.org/2000/svg">
<g filter="url(#filter0_d_1_19)">
<path d="M4 7C4 3.13401 7.13401 0 11 0H56C59.866 0 63 3.13401 63 7V50C63 53.866 59.866 57 56 57H11C7.13401 57 4 53.866 4 50V7Z" fill="white"/>
</g>
<path d="M55.7188 42.4219C55.7812 42.6719 55.8281 42.9062 55.8594 43.125C55.8906 43.3438 55.9375 43.5781 56 43.8281C55.875 44.1406 55.7656 44.4531 55.6719 44.7656C55.5781 45.0469 55.4844 45.3281 55.3906 45.6094C55.2969 45.8281 55.2344 45.9688 55.2031 46.0312C55.1719 46.0938 55.1562 46.1406 55.1562 46.1719C55.1562 46.2031 55.1562 46.25 55.1562 46.3125C55.1875 46.3438 55.2031 46.4688 55.2031 46.6875L55.0156 47.25C54.8594 47.4688 54.6719 47.6406 54.4531 47.7656C54.2344 47.8906 54.0156 48 53.7969 48.0938C53.7344 48.1562 53.6406 48.2031 53.5156 48.2344C53.3906 48.2969 53.2969 48.3594 53.2344 48.4219L53.0938 48.9844L52.4844 49.0781C51.9531 49.2031 51.5 49.2656 51.125 49.2656H50.5625C50.1875 48.9219 49.8906 48.6562 49.6719 48.4688C49.4531 48.2812 49.2188 48.1094 48.9688 47.9531C48.6562 47.5156 48.4844 47.2031 48.4531 47.0156C48.4219 46.7969 48.375 46.5938 48.3125 46.4062C48.25 46 48.1719 45.7344 48.0781 45.6094L47.4219 44.9531L47.9844 44.5312L47.4688 43.6406C47.8438 43.3594 48.125 43.1562 48.3125 43.0312C48.5 42.9062 48.6562 42.7812 48.7812 42.6562C48.9062 42.5 49.0469 42.3125 49.2031 42.0938C49.3594 41.875 49.6094 41.5156 49.9531 41.0156L50.375 40.4062L50.9844 40.7344C51.1094 40.8281 51.375 40.9219 51.7812 41.0156C52.2188 41.0781 52.5938 41.1406 52.9062 41.2031C53.4375 41.3594 53.9375 41.4844 54.4062 41.5781C54.875 41.6406 55.25 41.7969 55.5312 42.0469L55.7188 42.4219Z" fill="#4197AF"/>
<path d="M13.8594 43.9219C13.8594 43.4219 13.8125 42.9844 13.7188 42.6094C13.6562 42.2031 13.5781 41.8281 13.4844 41.4844C13.4219 41.1406 13.375 40.7812 13.3438 40.4062C13.3125 40.0312 13.3594 39.5938 13.4844 39.0938C13.3906 38.8125 13.2969 38.5469 13.2031 38.2969C13.1094 38.0156 13.0156 37.7344 12.9219 37.4531C12.9844 36.0469 13.2656 34.7812 13.7656 33.6562C14.2656 32.5 14.875 31.4531 15.5938 30.5156C16.3125 29.5469 17.0938 28.6719 17.9375 27.8906C18.7812 27.0781 19.5938 26.2969 20.375 25.5469C20.5312 25.7031 20.6406 25.7344 20.7031 25.6406C20.7969 25.5156 20.9844 25.4844 21.2656 25.5469C21.2969 25.3594 21.3906 25.125 21.5469 24.8438C21.7031 24.5625 21.8906 24.3125 22.1094 24.0938C22.3594 23.8438 22.625 23.6406 22.9062 23.4844C23.1875 23.3281 23.4531 23.2656 23.7031 23.2969C24.0156 22.7031 24.4844 22.1875 25.1094 21.75C25.7656 21.2812 26.4219 20.8281 27.0781 20.3906C27.7344 19.9531 28.3281 19.4688 28.8594 18.9375C29.3906 18.4062 29.7188 17.75 29.8438 16.9688H30.7812C30.4062 16.4062 30.2344 15.8281 30.2656 15.2344C30.2969 14.6094 30.4844 14.1094 30.8281 13.7344C31.2031 13.3281 31.7031 13.0781 32.3281 12.9844C32.9531 12.8906 33.6719 13.0469 34.4844 13.4531C34.8281 13.5156 35.0625 13.4531 35.1875 13.2656C35.3125 13.0781 35.5156 12.9531 35.7969 12.8906C37.2344 13.5156 38.5156 14.2812 39.6406 15.1875C40.7656 16.0938 41.7812 17.125 42.6875 18.2812C42.625 18.375 42.5469 18.4531 42.4531 18.5156C42.3906 18.5469 42.3281 18.5938 42.2656 18.6562C42.2031 18.6875 42.1562 18.7344 42.125 18.7969C42.125 18.8594 42.1875 18.9375 42.3125 19.0312C43.375 20.375 44.3281 21.8125 45.1719 23.3438C46.0156 24.8438 46.7969 26.4375 47.5156 28.125C47.6719 29.4062 47.7188 30.6875 47.6562 31.9688C47.5938 33.2188 47.4219 34.5469 47.1406 35.9531C46.8906 36.4844 46.5938 36.9844 46.25 37.4531C45.9375 37.8906 45.5938 38.3281 45.2188 38.7656C44.8438 39.1719 44.4688 39.5938 44.0938 40.0312C43.7188 40.4375 43.375 40.875 43.0625 41.3438L43.8594 43.2188C43.8281 43.4688 43.875 43.75 44 44.0625C44.125 44.3438 44.25 44.6406 44.375 44.9531C44.5 45.2344 44.5938 45.5156 44.6562 45.7969C44.75 46.0781 44.75 46.3125 44.6562 46.5C44.75 46.6875 44.9531 46.75 45.2656 46.6875C45.1406 46.75 45.0469 46.875 44.9844 47.0625C44.9531 47.25 45.1094 47.3125 45.4531 47.25C45.3906 47.5938 45.25 47.9844 45.0312 48.4219C44.8125 48.8594 44.5312 49.2656 44.1875 49.6406C43.8438 50.0469 43.4219 50.375 42.9219 50.625C42.4531 50.9062 41.9219 51.0469 41.3281 51.0469C40.7031 50.7344 40.2031 50.4219 39.8281 50.1094C39.4844 49.7969 39.0625 49.4219 38.5625 48.9844L36.8281 44.9062C34.5469 45.9375 32.1094 46.7812 29.5156 47.4375C26.9219 48.0625 24.1719 48.4531 21.2656 48.6094C19.7031 48.1719 18.2812 47.5781 17 46.8281C15.7188 46.0781 14.6719 45.1094 13.8594 43.9219ZM25.9062 31.5469C24.5312 32.6719 23.2812 33.9844 22.1562 35.4844C21.0625 36.9844 20.1719 38.625 19.4844 40.4062C19.7656 40.5625 20.1094 40.6562 20.5156 40.6875C20.9219 40.7188 21.2969 40.7812 21.6406 40.875C23.4219 40.375 25.25 39.9062 27.125 39.4688C29.0312 39 30.8594 38.4219 32.6094 37.7344C31.8906 36.8594 31.2031 36.0156 30.5469 35.2031C29.9219 34.3906 29.4219 33.5781 29.0469 32.7656C29.1406 32.5781 29.2188 32.3594 29.2812 32.1094C29.375 31.8594 29.4844 31.6094 29.6094 31.3594C29.7344 31.1094 29.9062 30.8906 30.125 30.7031C30.3438 30.5156 30.6406 30.4219 31.0156 30.4219C31.5781 30.6406 32.2344 30.7656 32.9844 30.7969C33.7656 30.8281 34.4688 30.9062 35.0938 31.0312C35.7188 31.4688 36.2656 32.0156 36.7344 32.6719C37.2031 33.2969 37.6719 33.9219 38.1406 34.5469C38.8281 33.9219 39.4219 33.2344 39.9219 32.4844C40.4219 31.7031 40.7969 30.8281 41.0469 29.8594C40.8594 29.3594 40.625 28.7969 40.3438 28.1719C40.0625 27.5469 39.7344 26.9375 39.3594 26.3438C39.0156 25.75 38.6094 25.2188 38.1406 24.75C37.7031 24.2812 37.2188 23.9688 36.6875 23.8125C36.4375 23.75 36.2656 23.7969 36.1719 23.9531C36.1094 24.0781 35.9219 24.0938 35.6094 24C33.9219 25.2188 32.2344 26.4219 30.5469 27.6094C28.8594 28.7656 27.3125 30.0781 25.9062 31.5469Z" fill="#4197AF"/>
<defs>
<filter id="filter0_d_1_19" x="0" y="0" width="67" height="65" filterUnits="userSpaceOnUse" color-interpolation-filters="sRGB">
<feFlood flood-opacity="0" result="BackgroundImageFix"/>
<feColorMatrix in="SourceAlpha" type="matrix" values="0 0 0 0 0 0 0 0 0 0 0 0 0 0 0 0 0 0 127 0" result="hardAlpha"/>
<feOffset dy="4"/>
<feGaussianBlur stdDeviation="2"/>
<feComposite in2="hardAlpha" operator="out"/>
<feColorMatrix type="matrix" values="0 0 0 0 0 0 0 0 0 0 0 0 0 0 0 0 0 0 0.25 0"/>
<feBlend mode="normal" in2="BackgroundImageFix" result="effect1_dropShadow_1_19"/>
<feBlend mode="normal" in="SourceGraphic" in2="effect1_dropShadow_1_19" result="shape"/>
</filter>
</defs>
</svg>
