<svg width="44" height="39" viewBox="0 0 44 39" fill="none" xmlns="http://www.w3.org/2000/svg">
<path d="M42.7969 29.5312C42.8594 29.7812 42.9062 30.0156 42.9375 30.2344C42.9688 30.4531 43.0156 30.6875 43.0781 30.9375C42.9531 31.25 42.8438 31.5625 42.75 31.875C42.6562 32.1562 42.5625 32.4375 42.4688 32.7188C42.375 32.9375 42.3125 33.0781 42.2812 33.1406C42.25 33.2031 42.2344 33.25 42.2344 33.2812C42.2344 33.3125 42.2344 33.3594 42.2344 33.4219C42.2656 33.4531 42.2812 33.5781 42.2812 33.7969L42.0938 34.3594C41.9375 34.5781 41.75 34.75 41.5312 34.875C41.3125 35 41.0938 35.1094 40.875 35.2031C40.8125 35.2656 40.7188 35.3125 40.5938 35.3438C40.4688 35.4062 40.375 35.4688 40.3125 35.5312L40.1719 36.0938L39.5625 36.1875C39.0312 36.3125 38.5781 36.375 38.2031 36.375H37.6406C37.2656 36.0312 36.9688 35.7656 36.75 35.5781C36.5312 35.3906 36.2969 35.2188 36.0469 35.0625C35.7344 34.625 35.5625 34.3125 35.5312 34.125C35.5 33.9062 35.4531 33.7031 35.3906 33.5156C35.3281 33.1094 35.25 32.8438 35.1562 32.7188L34.5 32.0625L35.0625 31.6406L34.5469 30.75C34.9219 30.4688 35.2031 30.2656 35.3906 30.1406C35.5781 30.0156 35.7344 29.8906 35.8594 29.7656C35.9844 29.6094 36.125 29.4219 36.2812 29.2031C36.4375 28.9844 36.6875 28.625 37.0312 28.125L37.4531 27.5156L38.0625 27.8438C38.1875 27.9375 38.4531 28.0312 38.8594 28.125C39.2969 28.1875 39.6719 28.25 39.9844 28.3125C40.5156 28.4688 41.0156 28.5938 41.4844 28.6875C41.9531 28.75 42.3281 28.9062 42.6094 29.1562L42.7969 29.5312Z" fill="white"/>
<path d="M0.9375 31.0312C0.9375 30.5312 0.890625 30.0938 0.796875 29.7188C0.734375 29.3125 0.65625 28.9375 0.5625 28.5938C0.5 28.25 0.453125 27.8906 0.421875 27.5156C0.390625 27.1406 0.4375 26.7031 0.5625 26.2031C0.46875 25.9219 0.375 25.6562 0.28125 25.4062C0.1875 25.125 0.09375 24.8438 0 24.5625C0.0625 23.1562 0.34375 21.8906 0.84375 20.7656C1.34375 19.6094 1.95312 18.5625 2.67188 17.625C3.39062 16.6562 4.17188 15.7812 5.01562 15C5.85938 14.1875 6.67188 13.4062 7.45312 12.6562C7.60938 12.8125 7.71875 12.8438 7.78125 12.75C7.875 12.625 8.0625 12.5938 8.34375 12.6562C8.375 12.4688 8.46875 12.2344 8.625 11.9531C8.78125 11.6719 8.96875 11.4219 9.1875 11.2031C9.4375 10.9531 9.70312 10.75 9.98438 10.5938C10.2656 10.4375 10.5312 10.375 10.7812 10.4062C11.0938 9.8125 11.5625 9.29688 12.1875 8.85938C12.8438 8.39062 13.5 7.9375 14.1562 7.5C14.8125 7.0625 15.4062 6.57812 15.9375 6.04688C16.4688 5.51562 16.7969 4.85938 16.9219 4.07812H17.8594C17.4844 3.51562 17.3125 2.9375 17.3438 2.34375C17.375 1.71875 17.5625 1.21875 17.9062 0.84375C18.2812 0.4375 18.7812 0.1875 19.4062 0.09375C20.0312 0 20.75 0.15625 21.5625 0.5625C21.9062 0.625 22.1406 0.5625 22.2656 0.375C22.3906 0.1875 22.5938 0.0625 22.875 0C24.3125 0.625 25.5938 1.39062 26.7188 2.29688C27.8438 3.20312 28.8594 4.23438 29.7656 5.39062C29.7031 5.48438 29.625 5.5625 29.5312 5.625C29.4688 5.65625 29.4062 5.70312 29.3438 5.76562C29.2812 5.79688 29.2344 5.84375 29.2031 5.90625C29.2031 5.96875 29.2656 6.04688 29.3906 6.14062C30.4531 7.48438 31.4062 8.92188 32.25 10.4531C33.0938 11.9531 33.875 13.5469 34.5938 15.2344C34.75 16.5156 34.7969 17.7969 34.7344 19.0781C34.6719 20.3281 34.5 21.6562 34.2188 23.0625C33.9688 23.5938 33.6719 24.0938 33.3281 24.5625C33.0156 25 32.6719 25.4375 32.2969 25.875C31.9219 26.2812 31.5469 26.7031 31.1719 27.1406C30.7969 27.5469 30.4531 27.9844 30.1406 28.4531L30.9375 30.3281C30.9062 30.5781 30.9531 30.8594 31.0781 31.1719C31.2031 31.4531 31.3281 31.75 31.4531 32.0625C31.5781 32.3438 31.6719 32.625 31.7344 32.9062C31.8281 33.1875 31.8281 33.4219 31.7344 33.6094C31.8281 33.7969 32.0312 33.8594 32.3438 33.7969C32.2188 33.8594 32.125 33.9844 32.0625 34.1719C32.0312 34.3594 32.1875 34.4219 32.5312 34.3594C32.4688 34.7031 32.3281 35.0938 32.1094 35.5312C31.8906 35.9688 31.6094 36.375 31.2656 36.75C30.9219 37.1562 30.5 37.4844 30 37.7344C29.5312 38.0156 29 38.1562 28.4062 38.1562C27.7812 37.8438 27.2812 37.5312 26.9062 37.2188C26.5625 36.9062 26.1406 36.5312 25.6406 36.0938L23.9062 32.0156C21.625 33.0469 19.1875 33.8906 16.5938 34.5469C14 35.1719 11.25 35.5625 8.34375 35.7188C6.78125 35.2812 5.35938 34.6875 4.07812 33.9375C2.79688 33.1875 1.75 32.2188 0.9375 31.0312ZM12.9844 18.6562C11.6094 19.7812 10.3594 21.0938 9.23438 22.5938C8.14062 24.0938 7.25 25.7344 6.5625 27.5156C6.84375 27.6719 7.1875 27.7656 7.59375 27.7969C8 27.8281 8.375 27.8906 8.71875 27.9844C10.5 27.4844 12.3281 27.0156 14.2031 26.5781C16.1094 26.1094 17.9375 25.5312 19.6875 24.8438C18.9688 23.9688 18.2812 23.125 17.625 22.3125C17 21.5 16.5 20.6875 16.125 19.875C16.2188 19.6875 16.2969 19.4688 16.3594 19.2188C16.4531 18.9688 16.5625 18.7188 16.6875 18.4688C16.8125 18.2188 16.9844 18 17.2031 17.8125C17.4219 17.625 17.7188 17.5312 18.0938 17.5312C18.6562 17.75 19.3125 17.875 20.0625 17.9062C20.8438 17.9375 21.5469 18.0156 22.1719 18.1406C22.7969 18.5781 23.3438 19.125 23.8125 19.7812C24.2812 20.4062 24.75 21.0312 25.2188 21.6562C25.9062 21.0312 26.5 20.3438 27 19.5938C27.5 18.8125 27.875 17.9375 28.125 16.9688C27.9375 16.4688 27.7031 15.9062 27.4219 15.2812C27.1406 14.6562 26.8125 14.0469 26.4375 13.4531C26.0938 12.8594 25.6875 12.3281 25.2188 11.8594C24.7812 11.3906 24.2969 11.0781 23.7656 10.9219C23.5156 10.8594 23.3438 10.9062 23.25 11.0625C23.1875 11.1875 23 11.2031 22.6875 11.1094C21 12.3281 19.3125 13.5312 17.625 14.7188C15.9375 15.875 14.3906 17.1875 12.9844 18.6562Z" fill="white"/>
</svg>
